<svg   xmlns="http://www.w3.org/2000/svg" viewBox="0 0 1714 3333" shape-rendering="geometricPrecision" text-rendering="geometricPrecision" image-rendering="optimizeQuality" fill-rule="evenodd" clip-rule="evenodd"><path d="M1163 607h456V94h-459c-182 0-348 74-467 194-120 120-194 285-194 467v304c0 26-21 47-47 47H94v513h358c26 0 47 21 47 47v1572h513V1666c0-26 21-47 47-47h466l85-513h-552c-26 0-47-21-47-47V755c0-40 17-78 44-105s64-44 105-44h2zm504 94h-508c-14 0-27 7-36 16-10 10-16 23-16 38v256h560c3 0 5 0 8 1 26 4 43 29 39 54l-101 604c-2 24-23 42-47 42h-459v1572c0 26-21 47-47 47H453c-26 0-47-21-47-47V1712H48c-26 0-47-21-47-47v-607c0-26 21-47 47-47h358V755c0-208 85-397 222-534S954-1 1162-1h506c26 0 47 21 47 47v607c0 26-21 47-47 47z" fill-rule="nonzero"/></svg>